<?xml version="1.0" encoding="utf-8"?>
<!-- Generator: Adobe Illustrator 25.2.0, SVG Export Plug-In . SVG Version: 6.00 Build 0)  -->
<svg version="1.1" id="Layer_1" xmlns="http://www.w3.org/2000/svg" xmlns:xlink="http://www.w3.org/1999/xlink" x="0px" y="0px"
	 viewBox="0 0 139.52 45" style="enable-background:new 0 0 139.52 45;" xml:space="preserve">
<style type="text/css">
	.st0{fill:#DE7355;}
</style>
<rect x="-7.98" y="-14.82" width="155.57" height="66.19"/>
<g>
	<g>
		<g>
			<path class="st0" d="M24.36,17.52c-0.43,0.27-1.22,0.47-1.91,0.47c-0.39,0-0.98-0.06-1.26-0.18l0.02-0.22
				c1.79-0.73,1.93-1.83,1.95-5.36C22.73,12.69,22.02,13,20.92,13c-1.12,0-2.2-0.39-3.2-0.79c0,3.56,0.14,4.66,1.95,5.39l0.02,0.22
				C19.41,17.94,18.82,18,18.43,18c-0.71,0-1.49-0.2-1.93-0.47C16.07,17.8,15.28,18,14.59,18c-0.39,0-0.98-0.06-1.26-0.18l0.02-0.22
				c1.93-0.77,1.95-1.96,1.95-6.19c-0.14-0.02-0.26-0.04-0.37-0.04c-0.88,0-1.53,0.23-1.71,0.9L13,12.24c0-1.18,0.88-2.1,2.3-2.14
				c-0.02-3.6-0.14-4.74-1.95-5.46l-0.02-0.22c0.27-0.12,0.87-0.18,1.26-0.18c0.69,0,1.47,0.2,1.91,0.47
				c0.43-0.27,1.22-0.47,1.93-0.47c0.39,0,0.98,0.06,1.26,0.18l-0.02,0.22c-1.87,0.77-1.95,1.93-1.95,5.82
				c1.38,0.37,2.67,0.9,3.79,0.9c0.79,0,1.42-0.26,1.65-0.94c0-3.85-0.1-5.03-1.95-5.78L21.2,4.42c0.27-0.12,0.87-0.18,1.26-0.18
				c0.69,0,1.47,0.2,1.91,0.47c0.43-0.27,1.22-0.47,1.93-0.47c0.39,0,0.98,0.06,1.26,0.18l-0.02,0.22c-1.95,0.79-1.95,2-1.95,6.33
				v0.33c0,4.32,0,5.52,1.95,6.31l0.02,0.22C27.27,17.94,26.68,18,26.29,18C25.58,17.99,24.8,17.8,24.36,17.52z"/>
			<path class="st0" d="M32.03,17.56c-0.39,0.24-1.2,0.43-1.75,0.43c-0.49,0-1-0.06-1.26-0.16l0.02-0.2
				c1.75-0.77,1.79-1.99,1.79-5.74c0-3.89,0-5.15-1.79-5.93l-0.02-0.2c0.26-0.1,0.77-0.16,1.26-0.16c0.55,0,1.36,0.2,1.75,0.43
				c0.41-0.23,1.22-0.43,1.79-0.43c0.47,0,0.98,0.06,1.24,0.16l-0.02,0.2c-1.77,0.79-1.79,2.03-1.79,5.76c0,3.89,0,5.13,1.79,5.92
				l0.02,0.2c-0.26,0.1-0.77,0.16-1.24,0.16C33.25,17.99,32.44,17.8,32.03,17.56z"/>
			<path class="st0" d="M37.9,17.5c-0.41,0.04-1.08,0.39-1.2,0.73l-0.23-0.04c-0.04-0.06-0.06-0.16-0.06-0.27
				c0-0.39,0.33-0.84,0.71-1.2c-0.08-0.27-0.16-0.57-0.16-0.87c0-0.67,0.22-1.38,0.9-2.06l0.2,0.06c0.04,1.87,1.34,2.97,2.99,2.97
				c1.77,0,2.52-0.79,2.52-1.69c0-2.77-6.49-2.48-6.49-6.39c0-2.48,1.99-3.4,4.29-3.4c1.32,0,2.42,0.31,2.79,0.61
				c0.41-0.06,1.08-0.43,1.22-0.75l0.24,0.04c0.06,0.06,0.08,0.16,0.08,0.26c0,0.41-0.39,0.87-0.75,1.22
				c0.1,0.27,0.14,0.55,0.14,0.87c0,0.59-0.18,1.24-0.69,1.87l-0.22-0.06c-0.16-1.89-1.3-2.65-2.73-2.65
				c-1.36,0-2.14,0.57-2.14,1.36c0,2.16,6.52,1.77,6.52,6.35c0,2.67-1.95,3.83-4.74,3.83C39.36,18.27,38.22,17.8,37.9,17.5z"/>
			<path class="st0" d="M52.51,17.56c-0.37,0.22-1.18,0.43-1.73,0.43c-0.49,0-1.02-0.06-1.28-0.16v-0.2
				c1.81-0.81,1.81-1.65,1.81-5.64v-1.04c0-3.54-0.04-4.17-1.3-4.17c-1.22,0-1.59,1.51-1.51,2.46L48.32,9.3
				c-0.63-0.61-0.88-1.26-0.88-1.87c0-0.27,0.06-0.57,0.16-0.83c-0.16-0.26-0.26-0.57-0.26-0.87c0-0.18,0.02-0.31,0.06-0.43
				l0.2-0.04c0.1,0.16,0.53,0.41,2.14,0.41h5.62c1.61,0,2.04-0.26,2.14-0.41l0.2,0.04c0.04,0.12,0.06,0.26,0.06,0.43
				c0,0.3-0.12,0.61-0.27,0.87c0.1,0.26,0.16,0.53,0.16,0.81c0,0.61-0.27,1.26-0.86,1.89l-0.18-0.06c0.08-0.94-0.3-2.46-1.51-2.46
				c-1.34,0-1.36,0.63-1.36,4.17V12c0,3.99,0,4.83,1.79,5.64l0.02,0.2c-0.27,0.1-0.81,0.16-1.28,0.16
				C53.71,17.99,52.88,17.78,52.51,17.56z"/>
			<path class="st0" d="M65.83,18.27c-4.01,0-6.86-2.69-6.86-6.45c0-3.77,2.85-6.49,6.86-6.49c4.03,0,6.88,2.71,6.88,6.49
				C72.71,15.58,69.86,18.27,65.83,18.27z M65.83,6.69c-2.53,0-3.95,1.69-3.95,5.21c0,2.65,0.9,5.01,3.95,5.01
				c2.16,0,3.97-1.32,3.97-5.03C69.8,8.86,68.76,6.69,65.83,6.69z"/>
			<path class="st0" d="M77.03,17.56c-0.39,0.39-1.51,0.43-1.99,0.43c-0.45,0-0.83-0.06-1.02-0.16l0.02-0.2
				c1.79-0.83,1.79-1.91,1.79-6.07c0-3.66-0.06-4.82-1.79-5.6l-0.02-0.2c0.23-0.1,0.65-0.16,1.2-0.16c0.39,0,1.42,0.1,1.81,0.45
				c0.43-0.35,1.49-0.71,3.1-0.71c2.24,0,4.38,0.57,4.38,2.97c0,2.16-2.12,3.46-4.15,3.75c3.6-0.13,3.89,5.27,6.21,5.27
				c0.14,0,0.27-0.02,0.45-0.08l0.16,0.26c-0.43,0.55-1.24,0.65-1.85,0.65c-4.44,0-3.66-5.29-7.09-5.39c0,3.2,0.1,4.13,1.79,4.86
				l0.02,0.2c-0.2,0.1-0.53,0.16-1.06,0.16C78.59,17.99,77.5,17.97,77.03,17.56z M80.12,6.52c-1.04,0-1.87,0.49-1.87,2.97v2
				c2.71-0.1,3.56-1.75,3.56-3.16C81.81,7.09,81.16,6.52,80.12,6.52z"/>
			<path class="st0" d="M92.3,17.56c-0.45,0.22-1.32,0.43-1.93,0.43c-0.39,0-0.84-0.06-1.08-0.16l0.02-0.2
				c1.61-0.73,1.77-1.77,1.79-4.54l-2.44-4.21c-1.34-2.32-1.87-2.61-2.56-2.93l-0.02-0.2c0.23-0.1,0.73-0.16,1.2-0.16
				c0.55,0,1.53,0.18,1.89,0.43c0.26-0.26,1.08-0.43,1.73-0.43c0.37,0,0.9,0.06,1.18,0.16l0.02,0.2c-0.49,0.23-1.14,0.53-1.14,1.32
				c0,0.3,0.08,0.65,0.31,1.1l1.63,3.2l0.73-1.38c0.69-1.28,1-2.12,1-2.75c0-0.67-0.35-1.08-1-1.49l-0.02-0.2
				c0.26-0.1,0.71-0.16,1.12-0.16c0.41,0,1.06,0.18,1.22,0.43c0.24-0.22,1.1-0.43,1.53-0.43c0.47,0,0.98,0.06,1.22,0.16l-0.02,0.2
				c-2.02,0.71-2.61,1.91-4.03,4.62l-1.14,2.16c0,3.03,0.12,4.17,1.79,4.89l0.02,0.2c-0.23,0.1-0.69,0.16-1.08,0.16
				C93.64,17.99,92.75,17.78,92.3,17.56z"/>
		</g>
		<g>
			<path class="st0" d="M111.13,17.72c-4.01,0-6.86-2.69-6.86-6.45c0-3.77,2.85-6.49,6.86-6.49c4.03,0,6.88,2.71,6.88,6.49
				C118.01,15.03,115.16,17.72,111.13,17.72z M111.13,6.14c-2.53,0-3.95,1.69-3.95,5.21c0,2.65,0.9,5.01,3.95,5.01
				c2.16,0,3.97-1.32,3.97-5.03C115.1,8.3,114.06,6.14,111.13,6.14z"/>
			<path class="st0" d="M127.85,10.21l0.27,0.04c0,0.77-0.37,2.61-2.06,2.61c-0.9,0-1.75-0.35-2.5-0.73
				c0.02,3.24,0.18,4.25,1.79,4.95l0.02,0.2c-0.27,0.1-0.8,0.16-1.3,0.16c-0.61,0-1.28-0.16-1.73-0.43
				c-0.43,0.3-0.96,0.43-1.71,0.43c-0.49,0-1.02-0.06-1.3-0.16l0.02-0.2c1.69-0.75,1.77-1.83,1.79-5.52v-0.37
				c-0.86,0-1.4,0.26-1.53,0.83l-0.26-0.08c0-1.02,0.67-1.79,1.79-1.95c-0.04-2.93-0.26-3.87-1.79-4.58l-0.02-0.2
				c0.18-0.1,0.55-0.16,0.84-0.16c1.26,0,1.67,0.22,2.16,0.45c0.59-0.22,1.2-0.45,3.76-0.45c2.16,0,2.71-0.12,2.85-0.22l0.2,0.04
				c0.02,0.08,0.04,0.16,0.04,0.26c0,0.23-0.12,0.49-0.26,0.69c0.08,0.27,0.12,0.57,0.12,0.84c0,0.61-0.2,1.22-0.61,1.81l-0.18-0.06
				c-0.22-0.69-0.35-2.1-2.24-2.1c-1.77,0-2.34,0.88-2.44,3.97c1.06,0.3,2,0.73,2.89,0.75C127.19,11.04,127.74,10.78,127.85,10.21z"
				/>
		</g>
	</g>
	<g>
		<path class="st0" d="M21.02,35.51c-0.43,0.27-1.22,0.47-1.91,0.47c-0.39,0-0.98-0.06-1.26-0.18l0.02-0.22
			c1.79-0.73,1.93-1.83,1.95-5.37c-0.43,0.45-1.14,0.77-2.24,0.77c-1.12,0-2.2-0.39-3.2-0.79c0,3.56,0.14,4.66,1.95,5.39l0.02,0.22
			c-0.27,0.12-0.87,0.18-1.26,0.18c-0.71,0-1.49-0.2-1.93-0.47c-0.43,0.27-1.22,0.47-1.91,0.47c-0.39,0-0.98-0.06-1.26-0.18
			l0.02-0.22c1.93-0.77,1.95-1.96,1.95-6.19c-0.14-0.02-0.26-0.04-0.37-0.04c-0.88,0-1.53,0.24-1.71,0.9l-0.22-0.04
			c0-1.18,0.88-2.1,2.3-2.14c-0.02-3.6-0.14-4.74-1.95-5.46l-0.02-0.22c0.27-0.12,0.87-0.18,1.26-0.18c0.69,0,1.47,0.2,1.91,0.47
			c0.43-0.27,1.22-0.47,1.93-0.47c0.39,0,0.98,0.06,1.26,0.18l-0.02,0.22c-1.87,0.77-1.95,1.93-1.95,5.82
			c1.38,0.37,2.67,0.9,3.79,0.9c0.79,0,1.42-0.26,1.65-0.94c0-3.85-0.1-5.03-1.95-5.78l-0.02-0.22c0.27-0.12,0.87-0.18,1.26-0.18
			c0.69,0,1.47,0.2,1.91,0.47c0.43-0.27,1.22-0.47,1.93-0.47c0.39,0,0.98,0.06,1.26,0.18l-0.02,0.22c-1.95,0.79-1.95,2-1.95,6.33
			v0.33c0,4.32,0,5.52,1.95,6.31l0.02,0.22c-0.27,0.12-0.87,0.18-1.26,0.18C22.24,35.99,21.45,35.79,21.02,35.51z"/>
		<path class="st0" d="M35.36,35.56c-0.37,0.26-1.14,0.43-1.75,0.43c-0.35,0-0.88-0.06-1.14-0.16l-0.02-0.2
			c0.65-0.31,0.92-0.73,0.92-1.43c0-0.51-0.14-1.1-0.39-1.93c-0.3,0.41-0.81,0.69-1.63,0.69c-0.92,0-1.65-0.33-2.36-0.63
			c-0.22,0.77-0.33,1.42-0.33,1.87c0,0.69,0.26,1.12,0.92,1.43v0.2c-0.3,0.1-0.77,0.16-1.06,0.16c-0.49,0-1.08-0.18-1.3-0.43
			c-0.2,0.26-0.9,0.43-1.38,0.43c-0.35,0-0.92-0.06-1.14-0.16l0.02-0.2c1.65-0.67,2.12-1.42,2.97-3.71
			c-0.12-0.02-0.26-0.04-0.37-0.04c-0.57,0-1.28,0.2-1.42,0.83l-0.26-0.08c0-1.14,0.84-1.99,2.22-1.99c0.08,0,0.18,0,0.26,0.02
			l0.26-0.69l0.49-1.38c0.55-1.51,0.79-2.22,0.79-2.97c0-1.14-0.53-1.57-1.42-1.63l-0.06-0.22c0.3-0.1,0.87-0.18,1.42-0.18
			c0.57,0,1.42,0.08,1.89,0.39c0.43-0.31,1.16-0.39,1.77-0.39c0.59,0,1.26,0.08,1.59,0.18v0.2c-1.02,0.27-1.46,0.65-1.46,1.18
			c0,0.45,0.31,1.26,0.41,1.55l1.06,3.36c1.2,3.71,1.61,4.87,3.34,5.56l0.02,0.2c-0.2,0.1-0.63,0.16-0.98,0.16
			C36.64,35.99,35.86,35.81,35.36,35.56z M32.73,31.43c-0.06-0.23-0.14-0.47-0.22-0.73l-1.38-4.44l-1.45,3.99l-0.26,0.73
			c0.84,0.31,1.61,0.75,2.4,0.75C32.2,31.72,32.52,31.62,32.73,31.43z"/>
		<path class="st0" d="M39.04,23.96c0-0.06-0.02-0.14-0.02-0.2c0.22-0.1,0.63-0.16,1-0.16c0.57,0,1.24,0.02,1.83,0.43
			c0.39-0.27,0.83-0.37,1.24-0.41c0.22-0.02,0.41-0.02,0.61-0.02c0.37,0,0.77,0.06,0.98,0.16v0.2c-1.46,0.75-1.57,2.08-1.61,5.68
			c-0.04,3.24,0.23,5.09,2.44,5.09c1.87,0,2.71-1.65,3.05-2.38h0.16c0.12,0.37,0.16,0.75,0.16,1.1c0,0.65-0.16,1.24-0.45,1.79
			c0.12,0.3,0.16,0.63,0.1,0.9c-0.02,0.08-0.04,0.18-0.1,0.23c-0.1,0-0.2-0.39-3.14-0.39c-1.95,0-2.34-0.02-3.42-0.45
			c-0.59,0.41-1.26,0.45-1.83,0.45c-0.37,0-0.79-0.06-1-0.16c0-0.06,0.02-0.14,0.02-0.2c1.65-0.79,1.61-2.1,1.61-5.99
			C40.65,26.04,40.65,24.75,39.04,23.96z"/>
		<path class="st0" d="M49.98,23.96c0-0.06-0.02-0.14-0.02-0.2c0.22-0.1,0.63-0.16,1-0.16c0.57,0,1.24,0.02,1.83,0.43
			c0.39-0.27,0.83-0.37,1.24-0.41c0.22-0.02,0.41-0.02,0.61-0.02c0.37,0,0.77,0.06,0.98,0.16v0.2c-1.46,0.75-1.57,2.08-1.61,5.68
			c-0.04,3.24,0.23,5.09,2.44,5.09c1.87,0,2.71-1.65,3.05-2.38h0.16c0.12,0.37,0.16,0.75,0.16,1.1c0,0.65-0.16,1.24-0.45,1.79
			c0.12,0.3,0.16,0.63,0.1,0.9c-0.02,0.08-0.04,0.18-0.1,0.23c-0.1,0-0.2-0.39-3.14-0.39c-1.95,0-2.34-0.02-3.42-0.45
			c-0.59,0.41-1.26,0.45-1.83,0.45c-0.37,0-0.79-0.06-1-0.16c0-0.06,0.02-0.14,0.02-0.2c1.65-0.79,1.61-2.1,1.61-5.99
			C51.6,26.04,51.6,24.75,49.98,23.96z"/>
		<path class="st0" d="M67.77,36.26c-4.01,0-6.86-2.69-6.86-6.45c0-3.77,2.85-6.49,6.86-6.49c4.03,0,6.88,2.71,6.88,6.49
			C74.65,33.57,71.8,36.26,67.77,36.26z M67.77,24.69c-2.53,0-3.95,1.69-3.95,5.21c0,2.65,0.9,5.01,3.95,5.01
			c2.16,0,3.97-1.32,3.97-5.03C71.74,26.85,70.7,24.69,67.77,24.69z"/>
		<path class="st0" d="M84.73,24.04c0.33-0.26,1.02-0.43,1.57-0.43c0.43,0,1.04,0.06,1.36,0.16l0.04,0.2
			c-0.69,0.3-0.98,0.73-0.98,1.42c0,0.65,0.37,1.83,0.92,3.58l1.38,4.34l1.28-3.69c0.75-2.16,1.26-3.4,1.26-4.23
			c0-0.69-0.39-1.1-1.38-1.42v-0.2c0.26-0.1,0.75-0.16,1.1-0.16c0.41,0,1.06,0.18,1.22,0.43c0.12-0.26,0.86-0.43,1.28-0.43
			c0.37,0,0.8,0.06,1,0.16l-0.02,0.2c-1.63,0.65-2.03,1.83-3.34,5.74l-0.08,0.24c-0.71,2.12-1.2,3.42-1.2,4.24
			c0,0.84,0.53,1.36,1.43,1.42l0.04,0.22c-0.22,0.1-0.63,0.18-1.02,0.18c-0.63,0-1.34-0.18-2.06-0.39c-0.71,0.3-1.34,0.39-2.16,0.39
			c-0.43,0-0.88-0.08-1.14-0.18v-0.2c0.88-0.31,1.28-0.69,1.28-1.36c0-0.35-0.08-0.83-0.26-1.34l-1.04-3.24l-0.31-0.98l-0.45,1.24
			c-0.77,2.1-1.2,3.42-1.2,4.24c0,0.84,0.53,1.36,1.43,1.42l0.04,0.22c-0.22,0.1-0.63,0.18-1,0.18c-0.63,0-1.36-0.18-2.08-0.39
			c-0.69,0.3-1.34,0.39-2.18,0.39c-0.41,0-0.88-0.08-1.14-0.18v-0.2c0.88-0.31,1.26-0.69,1.26-1.36c0-0.35-0.04-0.83-0.22-1.38
			l-1.04-3.2c-1.26-3.87-1.67-5.05-3.36-5.72l-0.02-0.2c0.2-0.1,0.61-0.16,1-0.16c0.57,0,1.61,0.18,1.89,0.43
			c0.16-0.26,1.18-0.43,1.81-0.43c0.35,0,0.84,0.06,1.16,0.16l0.02,0.2c-0.71,0.3-1,0.73-1,1.42c0,0.65,0.35,1.79,0.92,3.56
			l1.37,4.36l2.2-6.31c-0.69-1.81-1.24-2.53-2.44-3.03l-0.02-0.2c0.24-0.1,0.73-0.16,1.18-0.16C83.55,23.6,84.3,23.78,84.73,24.04z"
			/>
		<path class="st0" d="M103.89,28.76l0.27,0.04c0,0.83-0.14,2.81-1.87,2.81c-1.02,0-1.93-0.39-2.75-0.81
			c0.1,3.3,0.77,3.89,2.97,3.89c1.2,0,2.56-1.08,2.91-2.38h0.23c0.1,0.37,0.18,0.73,0.18,1.08c0,0.67-0.18,1.28-0.49,1.85
			c0.1,0.2,0.14,0.43,0.14,0.65c0,0.16-0.04,0.37-0.14,0.49l-0.2-0.02c-0.08-0.18-1.02-0.37-3.09-0.37c-2.14,0-2.81-0.02-3.75-0.45
			c-0.2,0.27-1.12,0.45-1.69,0.45c-0.47,0-0.98-0.06-1.26-0.16l0.02-0.2c1.73-0.79,1.73-1.42,1.73-5.46v-0.23
			c-0.83,0.02-1.32,0.27-1.45,0.83l-0.26-0.08c0-0.98,0.65-1.77,1.71-1.95c-0.02-3.4-0.12-4.03-1.73-4.78l-0.02-0.2
			c0.3-0.1,0.94-0.16,1.42-0.16c0.61,0,1.18,0.12,1.53,0.45c0.47-0.33,1.49-0.45,2.99-0.45c1.28,0,1.93,0.08,2.61,0.33
			c0.65-0.26,0.9-0.3,1.06-0.33l0.2,0.04c0.02,0.06,0.04,0.14,0.04,0.33c0,0.23-0.1,0.51-0.26,0.77c0.06,0.3,0.12,0.57,0.12,0.98
			c0,0.51-0.18,1.14-0.57,1.75l-0.22-0.06c0.04-1.34-0.69-2.53-2.42-2.53c-1.69,0-2.24,1.06-2.34,4.11c1.1,0.31,2.08,0.77,2.99,0.79
			C103.22,29.78,103.78,29.46,103.89,28.76z"/>
		<path class="st0" d="M115.78,28.76l0.27,0.04c0,0.83-0.14,2.81-1.87,2.81c-1.02,0-1.93-0.39-2.75-0.81
			c0.1,3.3,0.77,3.89,2.97,3.89c1.2,0,2.56-1.08,2.91-2.38h0.23c0.1,0.37,0.18,0.73,0.18,1.08c0,0.67-0.18,1.28-0.49,1.85
			c0.1,0.2,0.14,0.43,0.14,0.65c0,0.16-0.04,0.37-0.14,0.49l-0.2-0.02c-0.08-0.18-1.02-0.37-3.09-0.37c-2.14,0-2.81-0.02-3.75-0.45
			c-0.2,0.27-1.12,0.45-1.69,0.45c-0.47,0-0.98-0.06-1.26-0.16l0.02-0.2c1.73-0.79,1.73-1.42,1.73-5.46v-0.23
			c-0.83,0.02-1.32,0.27-1.45,0.83l-0.26-0.08c0-0.98,0.65-1.77,1.71-1.95c-0.02-3.4-0.12-4.03-1.73-4.78l-0.02-0.2
			c0.3-0.1,0.94-0.16,1.42-0.16c0.61,0,1.18,0.12,1.53,0.45c0.47-0.33,1.49-0.45,2.99-0.45c1.28,0,1.93,0.08,2.61,0.33
			c0.65-0.26,0.9-0.3,1.06-0.33l0.2,0.04c0.02,0.06,0.04,0.14,0.04,0.33c0,0.23-0.1,0.51-0.26,0.77c0.06,0.3,0.12,0.57,0.12,0.98
			c0,0.51-0.18,1.14-0.57,1.75l-0.22-0.06c0.04-1.34-0.69-2.53-2.42-2.53c-1.69,0-2.24,1.06-2.34,4.11c1.1,0.31,2.08,0.77,2.99,0.79
			C115.12,29.78,115.66,29.46,115.78,28.76z"/>
		<path class="st0" d="M128.64,37.17c0-0.81-0.71-1.79-1.12-2.53l-5.31-7.94l-0.06,2.73c0,4.25,0,5.4,1.79,6.21l0.02,0.2
			c-0.23,0.1-0.73,0.16-1.08,0.16c-0.69,0-1.1-0.16-1.34-0.43c-0.3,0.27-0.81,0.43-1.32,0.43c-0.39,0-0.84-0.06-1.08-0.16l0.02-0.2
			c1.79-0.81,1.79-1.96,1.79-6.21c0-3.58-0.08-4.68-1.79-5.46l-0.02-0.2c0.23-0.1,0.69-0.16,1.08-0.16c0.43,0,1.04,0.22,1.32,0.43
			c0.31-0.2,0.71-0.43,1.26-0.43c0.45,0,0.65,0.16,1.59,1.63l5.15,7.72v-2.89c0-4.19,0-5.29-1.79-6.11l-0.02-0.2
			c0.23-0.1,0.69-0.16,1.1-0.16c0.47,0,0.98,0.16,1.3,0.41c0.37-0.26,0.94-0.41,1.51-0.41c0.3,0,0.69,0.04,0.89,0.16v0.2
			c-1.81,0.83-1.81,1.91-1.81,6.11v4.72c-0.92,0.53-1.53,0.96-1.73,2.38L128.64,37.17L128.64,37.17z"/>
	</g>
</g>
</svg>
