<?xml version="1.0" encoding="utf-8"?>
<!-- Generator: Adobe Illustrator 25.2.0, SVG Export Plug-In . SVG Version: 6.00 Build 0)  -->
<svg version="1.1" id="Layer_1" xmlns="http://www.w3.org/2000/svg" xmlns:xlink="http://www.w3.org/1999/xlink" x="0px" y="0px"
	 viewBox="0 0 1078.78 208.02" style="enable-background:new 0 0 1078.78 208.02;" xml:space="preserve">
<style type="text/css">
	.st0{fill:#DE7355;}
</style>
<g>
	<path class="st0" d="M58.71,123.76c-1.86,1.18-5.24,2.03-8.2,2.03c-1.69,0-4.23-0.25-5.41-0.76l0.08-0.93
		c7.69-3.13,8.28-7.86,8.37-23.07c-1.86,1.94-4.9,3.3-9.63,3.3c-4.82,0-9.47-1.69-13.78-3.38c0,15.3,0.59,20.03,8.37,23.16
		l0.08,0.93c-1.18,0.51-3.72,0.76-5.41,0.76c-3.04,0-6.42-0.84-8.28-2.03c-1.86,1.18-5.24,2.03-8.2,2.03
		c-1.69,0-4.23-0.25-5.41-0.76l0.08-0.93c8.28-3.3,8.37-8.45,8.37-26.62c-0.59-0.08-1.1-0.17-1.6-0.17c-3.8,0-6.59,1.01-7.35,3.89
		l-0.93-0.17c0-5.07,3.8-9.04,9.89-9.21c-0.08-15.47-0.59-20.37-8.37-23.5l-0.08-0.93c1.18-0.51,3.72-0.76,5.41-0.76
		c2.96,0,6.34,0.85,8.2,2.03c1.86-1.18,5.24-2.03,8.28-2.03c1.69,0,4.23,0.25,5.41,0.76l-0.08,0.93c-8.03,3.3-8.37,8.28-8.37,25.02
		c5.92,1.61,11.5,3.89,16.31,3.89c3.38,0,6.09-1.1,7.1-4.06c0-16.57-0.42-21.64-8.37-24.85l-0.08-0.93
		c1.18-0.51,3.72-0.76,5.41-0.76c2.96,0,6.34,0.85,8.2,2.03c1.86-1.18,5.24-2.03,8.28-2.03c1.69,0,4.23,0.25,5.41,0.76l-0.08,0.93
		c-8.37,3.38-8.37,8.62-8.37,27.22v1.44c0,18.59,0,23.75,8.37,27.13l0.08,0.93c-1.18,0.51-3.72,0.76-5.41,0.76
		C63.95,125.79,60.57,124.94,58.71,123.76z"/>
	<path class="st0" d="M91.67,123.93c-1.69,1.02-5.16,1.86-7.52,1.86c-2.11,0-4.31-0.25-5.41-0.68l0.08-0.84
		c7.52-3.3,7.69-8.54,7.69-24.68c0-16.73,0-22.14-7.69-25.52l-0.08-0.85c1.1-0.42,3.3-0.68,5.41-0.68c2.37,0,5.83,0.85,7.52,1.86
		c1.77-1.01,5.24-1.86,7.69-1.86c2.03,0,4.23,0.25,5.32,0.68l-0.08,0.85c-7.61,3.38-7.69,8.71-7.69,24.76
		c0,16.74,0,22.06,7.69,25.44l0.08,0.84c-1.1,0.42-3.3,0.68-5.32,0.68C96.91,125.79,93.45,124.94,91.67,123.93z"/>
	<path class="st0" d="M116.94,123.68c-1.78,0.17-4.65,1.69-5.16,3.13l-1.01-0.17c-0.17-0.25-0.25-0.68-0.25-1.18
		c0-1.69,1.44-3.63,3.04-5.16c-0.34-1.18-0.68-2.45-0.68-3.72c0-2.87,0.93-5.92,3.89-8.88l0.85,0.25
		c0.17,8.03,5.75,12.76,12.85,12.76c7.61,0,10.82-3.38,10.82-7.27c0-11.92-27.89-10.65-27.89-27.47c0-10.65,8.54-14.62,18.43-14.62
		c5.66,0,10.4,1.35,12,2.62c1.77-0.25,4.65-1.86,5.24-3.21l1.02,0.17c0.25,0.25,0.34,0.68,0.34,1.1c0,1.77-1.69,3.72-3.21,5.24
		c0.42,1.18,0.59,2.37,0.59,3.72c0,2.53-0.76,5.32-2.96,8.03l-0.93-0.25c-0.68-8.11-5.58-11.41-11.75-11.41
		c-5.83,0-9.21,2.45-9.21,5.83c0,9.3,28.06,7.61,28.06,27.3c0,11.5-8.37,16.48-20.37,16.48C123.2,126.97,118.3,124.94,116.94,123.68
		z"/>
	<path class="st0" d="M179.74,123.93c-1.6,0.93-5.07,1.86-7.44,1.86c-2.11,0-4.39-0.25-5.49-0.68v-0.84
		c7.78-3.47,7.78-7.1,7.78-24.26v-4.48c0-15.21-0.17-17.92-5.58-17.92c-5.24,0-6.85,6.51-6.51,10.56l-0.76,0.25
		c-2.7-2.62-3.8-5.41-3.8-8.03c0-1.18,0.25-2.45,0.68-3.55c-0.68-1.1-1.1-2.45-1.1-3.72c0-0.76,0.08-1.35,0.25-1.86l0.84-0.17
		c0.42,0.68,2.28,1.78,9.21,1.78H192c6.93,0,8.79-1.1,9.21-1.78l0.84,0.17c0.17,0.51,0.25,1.1,0.25,1.86c0,1.27-0.51,2.62-1.18,3.72
		c0.42,1.1,0.68,2.28,0.68,3.47c0,2.62-1.18,5.41-3.72,8.11l-0.76-0.25c0.34-4.06-1.27-10.56-6.51-10.56
		c-5.75,0-5.83,2.7-5.83,17.92v4.48c0,17.16,0,20.79,7.69,24.26l0.08,0.84c-1.18,0.42-3.47,0.68-5.49,0.68
		C184.9,125.79,181.35,124.86,179.74,123.93z"/>
	<path class="st0" d="M237.05,126.97c-17.24,0-29.5-11.58-29.5-27.72c0-16.23,12.26-27.89,29.5-27.89
		c17.33,0,29.58,11.66,29.58,27.89C266.63,115.39,254.37,126.97,237.05,126.97z M237.05,77.19c-10.9,0-16.99,7.27-16.99,22.4
		c0,11.41,3.89,21.55,16.99,21.55c9.3,0,17.07-5.66,17.07-21.64C254.12,86.49,249.64,77.19,237.05,77.19z"/>
	<path class="st0" d="M285.22,123.93c-1.69,1.69-6.51,1.86-8.54,1.86c-1.95,0-3.55-0.25-4.4-0.68l0.08-0.84
		c7.69-3.55,7.69-8.2,7.69-26.12c0-15.72-0.25-20.71-7.69-24.09l-0.08-0.85c1.01-0.42,2.79-0.68,5.15-0.68
		c1.69,0,6.09,0.42,7.78,1.94c1.86-1.52,6.42-3.04,13.35-3.04c9.64,0,18.85,2.45,18.85,12.76c0,9.3-9.13,14.88-17.83,16.14
		C315.05,99.76,316.32,123,326.3,123c0.59,0,1.18-0.08,1.95-0.34l0.68,1.1c-1.86,2.37-5.33,2.79-7.95,2.79
		c-19.1,0-15.72-22.74-30.51-23.16c0,13.78,0.43,17.75,7.69,20.88l0.09,0.84c-0.84,0.42-2.28,0.68-4.57,0.68
		C291.9,125.79,287.25,125.7,285.22,123.93z M298.49,76.43c-4.48,0-8.03,2.11-8.03,12.76v8.62c11.66-0.42,15.3-7.52,15.3-13.61
		C305.76,78.88,302.97,76.43,298.49,76.43z"/>
	<path class="st0" d="M350.89,123.93c-1.94,0.93-5.66,1.86-8.28,1.86c-1.69,0-3.63-0.25-4.65-0.68l0.08-0.84
		c6.93-3.13,7.61-7.61,7.69-19.53l-10.48-18.09c-5.75-9.97-8.03-11.24-10.99-12.59l-0.08-0.85c1.01-0.42,3.13-0.68,5.16-0.68
		c2.37,0,6.59,0.76,8.11,1.86c1.1-1.1,4.65-1.86,7.44-1.86c1.61,0,3.89,0.25,5.07,0.68l0.09,0.85c-2.11,1.01-4.9,2.28-4.9,5.66
		c0,1.27,0.34,2.79,1.35,4.73l7.02,13.78l3.13-5.92c2.96-5.49,4.31-9.13,4.31-11.83c0-2.87-1.52-4.65-4.31-6.42l-0.09-0.85
		c1.1-0.42,3.04-0.68,4.82-0.68s4.57,0.76,5.24,1.86c1.02-0.93,4.74-1.86,6.59-1.86c2.03,0,4.23,0.25,5.24,0.68l-0.09,0.85
		c-8.7,3.04-11.24,8.2-17.33,19.86l-4.9,9.3c0,13.02,0.51,17.92,7.69,21.05l0.08,0.84c-1.01,0.42-2.96,0.68-4.65,0.68
		C356.64,125.79,352.83,124.86,350.89,123.93z"/>
</g>
<g>
	<path class="st0" d="M431.86,124.61c-17.24,0-29.5-11.58-29.5-27.72c0-16.23,12.26-27.89,29.5-27.89
		c17.33,0,29.58,11.66,29.58,27.89C461.44,113.03,449.19,124.61,431.86,124.61z M431.86,74.82c-10.9,0-16.99,7.27-16.99,22.4
		c0,11.41,3.89,21.55,16.99,21.55c9.3,0,17.08-5.66,17.08-21.64C448.93,84.12,444.46,74.82,431.86,74.82z"/>
	<path class="st0" d="M503.78,92.32l1.18,0.17c0,3.3-1.61,11.24-8.88,11.24c-3.89,0-7.52-1.52-10.73-3.13
		c0.09,13.95,0.76,18.26,7.69,21.3l0.08,0.84c-1.18,0.42-3.46,0.68-5.58,0.68c-2.62,0-5.5-0.68-7.44-1.86
		c-1.86,1.27-4.14,1.86-7.35,1.86c-2.11,0-4.4-0.25-5.58-0.68l0.09-0.84c7.27-3.21,7.61-7.86,7.69-23.75v-1.61
		c-3.72,0-6,1.1-6.59,3.55l-1.1-0.34c0-4.4,2.87-7.69,7.69-8.37c-0.17-12.59-1.1-16.65-7.69-19.69l-0.09-0.85
		c0.76-0.42,2.37-0.68,3.63-0.68c5.41,0,7.18,0.93,9.3,1.94c2.54-0.93,5.16-1.94,16.15-1.94c9.3,0,11.66-0.51,12.25-0.93l0.84,0.17
		c0.09,0.34,0.17,0.68,0.17,1.1c0,1.01-0.51,2.11-1.1,2.96c0.34,1.18,0.5,2.45,0.5,3.63c0,2.62-0.84,5.24-2.62,7.78l-0.76-0.25
		c-0.93-2.96-1.52-9.04-9.63-9.04c-7.61,0-10.06,3.8-10.48,17.07c4.56,1.27,8.62,3.13,12.42,3.21
		C500.91,95.87,503.28,94.77,503.78,92.32z"/>
</g>
<g>
	<path class="st0" d="M589.37,121.81c-1.86,1.18-5.24,2.03-8.2,2.03c-1.69,0-4.23-0.25-5.41-0.76l0.09-0.93
		c7.69-3.13,8.28-7.86,8.37-23.08c-1.86,1.94-4.9,3.3-9.64,3.3c-4.82,0-9.47-1.69-13.78-3.38c0,15.3,0.59,20.03,8.37,23.16
		l0.08,0.93c-1.18,0.51-3.72,0.76-5.41,0.76c-3.04,0-6.42-0.84-8.28-2.03c-1.86,1.18-5.24,2.03-8.2,2.03
		c-1.69,0-4.23-0.25-5.41-0.76l0.09-0.93c8.28-3.3,8.37-8.45,8.37-26.62c-0.59-0.09-1.1-0.17-1.61-0.17c-3.8,0-6.59,1.02-7.35,3.89
		l-0.93-0.17c0-5.07,3.8-9.04,9.89-9.21c-0.09-15.47-0.59-20.37-8.37-23.5l-0.09-0.93c1.18-0.5,3.72-0.76,5.41-0.76
		c2.96,0,6.34,0.84,8.2,2.03c1.86-1.18,5.24-2.03,8.28-2.03c1.69,0,4.23,0.25,5.41,0.76l-0.08,0.93c-8.03,3.3-8.37,8.28-8.37,25.02
		c5.92,1.61,11.5,3.89,16.31,3.89c3.38,0,6.09-1.1,7.1-4.06c0-16.57-0.42-21.64-8.37-24.85l-0.09-0.93c1.18-0.5,3.72-0.76,5.41-0.76
		c2.96,0,6.34,0.84,8.2,2.03c1.86-1.18,5.24-2.03,8.28-2.03c1.69,0,4.23,0.25,5.41,0.76l-0.08,0.93c-8.37,3.38-8.37,8.62-8.37,27.22
		v1.44c0,18.59,0,23.75,8.37,27.13l0.08,0.93c-1.18,0.51-3.72,0.76-5.41,0.76C594.61,123.84,591.22,123,589.37,121.81z"/>
	<path class="st0" d="M651.06,121.98c-1.61,1.1-4.9,1.86-7.52,1.86c-1.52,0-3.8-0.25-4.9-0.68l-0.08-0.84
		c2.79-1.35,3.97-3.13,3.97-6.17c0-2.2-0.59-4.73-1.69-8.28c-1.27,1.77-3.47,2.96-7.02,2.96c-3.97,0-7.1-1.44-10.14-2.7
		c-0.93,3.3-1.44,6.09-1.44,8.03c0,2.96,1.1,4.82,3.97,6.17v0.84c-1.27,0.42-3.3,0.68-4.56,0.68c-2.11,0-4.65-0.76-5.58-1.86
		c-0.84,1.1-3.89,1.86-5.92,1.86c-1.52,0-3.97-0.25-4.9-0.68l0.09-0.84c7.1-2.87,9.13-6.09,12.76-15.97
		c-0.51-0.09-1.1-0.17-1.6-0.17c-2.45,0-5.49,0.85-6.09,3.55l-1.1-0.34c0-4.9,3.63-8.54,9.55-8.54c0.34,0,0.76,0,1.1,0.09l1.1-2.96
		l2.11-5.92c2.37-6.51,3.38-9.55,3.38-12.76c0-4.9-2.28-6.76-6.09-7.02l-0.25-0.93c1.27-0.42,3.72-0.76,6.09-0.76
		c2.45,0,6.09,0.34,8.11,1.69c1.86-1.35,4.99-1.69,7.61-1.69c2.54,0,5.41,0.34,6.85,0.76v0.84c-4.4,1.18-6.26,2.79-6.26,5.07
		c0,1.94,1.35,5.41,1.77,6.68l4.56,14.45c5.16,15.97,6.93,20.96,14.37,23.92l0.08,0.84c-0.84,0.42-2.7,0.68-4.23,0.68
		C656.56,123.84,653.18,123.08,651.06,121.98z M639.74,104.23c-0.25-1.01-0.59-2.03-0.93-3.13l-5.92-19.1l-6.25,17.16l-1.1,3.13
		c3.63,1.35,6.93,3.21,10.31,3.21C637.46,105.5,638.81,105.08,639.74,104.23z"/>
	<path class="st0" d="M666.87,72.11c0-0.25-0.08-0.59-0.08-0.84c0.93-0.42,2.7-0.68,4.31-0.68c2.45,0,5.33,0.09,7.86,1.86
		c1.69-1.18,3.55-1.61,5.32-1.77c0.93-0.09,1.77-0.09,2.62-0.09c1.61,0,3.3,0.25,4.23,0.68v0.84c-6.26,3.21-6.76,8.96-6.93,24.43
		c-0.17,13.95,1.01,21.89,10.48,21.89c8.03,0,11.66-7.1,13.1-10.23h0.68c0.51,1.61,0.68,3.21,0.68,4.73c0,2.79-0.68,5.33-1.94,7.69
		c0.51,1.27,0.68,2.7,0.42,3.89c-0.08,0.34-0.17,0.76-0.42,1.01c-0.42,0-0.85-1.69-13.52-1.69c-8.37,0-10.06-0.09-14.71-1.94
		c-2.54,1.77-5.41,1.94-7.86,1.94c-1.6,0-3.38-0.25-4.31-0.68c0-0.25,0.08-0.59,0.08-0.84c7.1-3.38,6.93-9.04,6.93-25.78
		C673.8,81.08,673.8,75.5,666.87,72.11z"/>
	<path class="st0" d="M713.94,72.11c0-0.25-0.08-0.59-0.08-0.84c0.93-0.42,2.7-0.68,4.31-0.68c2.45,0,5.33,0.09,7.86,1.86
		c1.69-1.18,3.55-1.61,5.32-1.77c0.93-0.09,1.77-0.09,2.62-0.09c1.61,0,3.3,0.25,4.23,0.68v0.84c-6.26,3.21-6.76,8.96-6.93,24.43
		c-0.17,13.95,1.01,21.89,10.48,21.89c8.03,0,11.66-7.1,13.1-10.23h0.68c0.51,1.61,0.68,3.21,0.68,4.73c0,2.79-0.68,5.33-1.94,7.69
		c0.51,1.27,0.68,2.7,0.42,3.89c-0.08,0.34-0.17,0.76-0.42,1.01c-0.42,0-0.85-1.69-13.52-1.69c-8.37,0-10.06-0.09-14.71-1.94
		c-2.54,1.77-5.41,1.94-7.86,1.94c-1.6,0-3.38-0.25-4.31-0.68c0-0.25,0.08-0.59,0.08-0.84c7.1-3.38,6.93-9.04,6.93-25.78
		C720.87,81.08,720.87,75.5,713.94,72.11z"/>
	<path class="st0" d="M790.43,125.03c-17.24,0-29.5-11.58-29.5-27.72c0-16.23,12.26-27.89,29.5-27.89
		c17.33,0,29.58,11.67,29.58,27.89C820.01,113.45,807.76,125.03,790.43,125.03z M790.43,75.24c-10.9,0-16.99,7.27-16.99,22.4
		c0,11.41,3.89,21.56,16.99,21.56c9.3,0,17.07-5.66,17.07-21.64C807.51,84.54,803.03,75.24,790.43,75.24z"/>
	<path class="st0" d="M863.37,72.45c1.44-1.1,4.39-1.86,6.76-1.86c1.86,0,4.48,0.25,5.83,0.68l0.17,0.84
		c-2.96,1.27-4.23,3.13-4.23,6.09c0,2.79,1.61,7.86,3.97,15.38l5.92,18.68l5.5-15.89c3.21-9.3,5.41-14.62,5.41-18.17
		c0-2.96-1.69-4.73-5.92-6.09v-0.84c1.1-0.42,3.21-0.68,4.73-0.68c1.77,0,4.57,0.76,5.24,1.86c0.51-1.1,3.72-1.86,5.5-1.86
		c1.6,0,3.46,0.25,4.31,0.68l-0.08,0.84c-7.02,2.79-8.71,7.86-14.37,24.68l-0.34,1.02c-3.04,9.13-5.16,14.7-5.16,18.25
		c0,3.63,2.28,5.83,6.17,6.09l0.17,0.93c-0.93,0.43-2.7,0.76-4.4,0.76c-2.7,0-5.75-0.76-8.87-1.69c-3.04,1.27-5.75,1.69-9.3,1.69
		c-1.86,0-3.8-0.34-4.9-0.76v-0.84c3.8-1.35,5.49-2.96,5.49-5.83c0-1.52-0.34-3.55-1.1-5.75l-4.48-13.95l-1.35-4.23l-1.94,5.33
		c-3.3,9.04-5.16,14.7-5.16,18.25c0,3.63,2.28,5.83,6.17,6.09l0.17,0.93c-0.93,0.43-2.7,0.76-4.31,0.76c-2.7,0-5.83-0.76-8.96-1.69
		c-2.96,1.27-5.75,1.69-9.38,1.69c-1.77,0-3.8-0.34-4.9-0.76v-0.84c3.8-1.35,5.41-2.96,5.41-5.83c0-1.52-0.17-3.55-0.93-5.92
		l-4.48-13.78c-5.41-16.65-7.18-21.72-14.45-24.6l-0.09-0.84c0.85-0.42,2.62-0.68,4.31-0.68c2.45,0,6.93,0.76,8.11,1.86
		c0.68-1.1,5.07-1.86,7.78-1.86c1.52,0,3.63,0.25,4.99,0.68l0.08,0.84c-3.04,1.27-4.31,3.13-4.31,6.09c0,2.79,1.52,7.69,3.97,15.3
		l5.91,18.76l9.47-27.13c-2.96-7.78-5.32-10.9-10.48-13.02l-0.09-0.84c1.02-0.42,3.13-0.68,5.07-0.68
		C858.3,70.59,861.51,71.36,863.37,72.45z"/>
	<path class="st0" d="M945.78,92.74l1.18,0.17c0,3.55-0.59,12.09-8.03,12.09c-4.4,0-8.29-1.69-11.83-3.47
		c0.42,14.2,3.3,16.74,12.76,16.74c5.16,0,10.99-4.65,12.51-10.23h1.01c0.43,1.61,0.76,3.13,0.76,4.65c0,2.87-0.76,5.49-2.11,7.94
		c0.43,0.84,0.59,1.86,0.59,2.79c0,0.68-0.17,1.61-0.59,2.11l-0.84-0.08c-0.34-0.76-4.39-1.61-13.27-1.61
		c-9.21,0-12.09-0.09-16.14-1.94c-0.85,1.18-4.82,1.94-7.27,1.94c-2.03,0-4.23-0.25-5.41-0.68l0.09-0.84
		c7.43-3.38,7.43-6.09,7.43-23.5v-1.01c-3.55,0.08-5.66,1.18-6.25,3.55l-1.1-0.34c0-4.23,2.79-7.61,7.35-8.37
		c-0.08-14.62-0.5-17.33-7.43-20.54l-0.09-0.84c1.27-0.42,4.06-0.68,6.09-0.68c2.62,0,5.07,0.51,6.59,1.95
		c2.03-1.44,6.42-1.95,12.85-1.95c5.49,0,8.28,0.34,11.24,1.44c2.79-1.1,3.89-1.27,4.56-1.44l0.85,0.17
		c0.08,0.25,0.17,0.59,0.17,1.44c0,1.01-0.42,2.2-1.1,3.3c0.25,1.27,0.51,2.45,0.51,4.23c0,2.2-0.76,4.9-2.45,7.52l-0.93-0.25
		c0.17-5.75-2.96-10.9-10.4-10.9c-7.27,0-9.64,4.56-10.06,17.67c4.73,1.35,8.96,3.3,12.85,3.38
		C942.9,97.13,945.27,95.78,945.78,92.74z"/>
	<path class="st0" d="M996.91,92.74l1.18,0.17c0,3.55-0.59,12.09-8.03,12.09c-4.4,0-8.29-1.69-11.83-3.47
		c0.42,14.2,3.3,16.74,12.76,16.74c5.16,0,10.99-4.65,12.51-10.23h1.01c0.43,1.61,0.76,3.13,0.76,4.65c0,2.87-0.76,5.49-2.11,7.94
		c0.43,0.84,0.59,1.86,0.59,2.79c0,0.68-0.17,1.61-0.59,2.11l-0.84-0.08c-0.34-0.76-4.39-1.61-13.27-1.61
		c-9.21,0-12.09-0.09-16.14-1.94c-0.85,1.18-4.82,1.94-7.27,1.94c-2.03,0-4.23-0.25-5.41-0.68l0.09-0.84
		c7.43-3.38,7.43-6.09,7.43-23.5v-1.01c-3.55,0.08-5.66,1.18-6.25,3.55l-1.1-0.34c0-4.23,2.79-7.61,7.35-8.37
		c-0.08-14.62-0.5-17.33-7.43-20.54l-0.09-0.84c1.27-0.42,4.06-0.68,6.09-0.68c2.62,0,5.07,0.51,6.59,1.95
		c2.03-1.44,6.42-1.95,12.85-1.95c5.49,0,8.28,0.34,11.24,1.44c2.79-1.1,3.89-1.27,4.56-1.44l0.85,0.17
		c0.08,0.25,0.17,0.59,0.17,1.44c0,1.01-0.42,2.2-1.1,3.3c0.25,1.27,0.51,2.45,0.51,4.23c0,2.2-0.76,4.9-2.45,7.52l-0.93-0.25
		c0.17-5.75-2.96-10.9-10.4-10.9c-7.27,0-9.64,4.56-10.06,17.67c4.73,1.35,8.96,3.3,12.85,3.38
		C994.04,97.13,996.4,95.78,996.91,92.74z"/>
	<path class="st0" d="M1052.19,128.92c0-3.47-3.04-7.69-4.82-10.9l-22.82-34.15l-0.25,11.75c0,18.26,0,23.24,7.69,26.71l0.09,0.84
		c-1.01,0.42-3.13,0.68-4.65,0.68c-2.96,0-4.73-0.68-5.75-1.86c-1.27,1.18-3.47,1.86-5.66,1.86c-1.69,0-3.63-0.25-4.65-0.68
		l0.08-0.84c7.69-3.47,7.69-8.45,7.69-26.71c0-15.38-0.34-20.11-7.69-23.5l-0.08-0.84c1.01-0.42,2.96-0.68,4.65-0.68
		c1.86,0,4.48,0.93,5.66,1.86c1.35-0.84,3.04-1.86,5.41-1.86c1.94,0,2.79,0.68,6.85,7.02l22.14,33.22V98.4c0-18,0-22.74-7.69-26.29
		l-0.09-0.84c1.01-0.42,2.96-0.68,4.73-0.68c2.03,0,4.23,0.68,5.58,1.77c1.61-1.1,4.06-1.77,6.51-1.77c1.27,0,2.96,0.17,3.81,0.68
		v0.84c-7.78,3.55-7.78,8.2-7.78,26.29v20.29c-3.97,2.28-6.59,4.14-7.44,10.23H1052.19z"/>
</g>
</svg>
